<mxfile host="app.diagrams.net" agent="Mozilla/5.0 (Windows NT 10.0; Win64; x64) AppleWebKit/537.36 (KHTML, like Gecko) Chrome/131.0.0.0 Safari/537.36" version="24.8.6">
  <diagram name="Page-1" id="zC7rHwAC2zWtIBFX11yT">
    <mxGraphModel dx="1434" dy="772" grid="1" gridSize="10" guides="1" tooltips="1" connect="1" arrows="1" fold="1" page="1" pageScale="1" pageWidth="850" pageHeight="1100" math="0" shadow="0">
      <root>
        <mxCell id="0" />
        <mxCell id="1" parent="0" />
        <mxCell id="5OvOFmdN3fMAkDXwJzaa-1" value="" style="image;aspect=fixed;html=1;points=[];align=center;fontSize=12;image=img/lib/azure2/storage/Azure_HCP_Cache.svg;" vertex="1" parent="1">
          <mxGeometry x="370" y="280" width="68" height="63" as="geometry" />
        </mxCell>
        <mxCell id="5OvOFmdN3fMAkDXwJzaa-2" value="" style="image;aspect=fixed;html=1;points=[];align=center;fontSize=12;image=img/lib/azure2/networking/Application_Gateways.svg;" vertex="1" parent="1">
          <mxGeometry x="372" y="400" width="64" height="64" as="geometry" />
        </mxCell>
        <mxCell id="5OvOFmdN3fMAkDXwJzaa-3" value="" style="image;aspect=fixed;html=1;points=[];align=center;fontSize=12;image=img/lib/azure2/databases/Azure_Cosmos_DB.svg;" vertex="1" parent="1">
          <mxGeometry x="520" y="740" width="64" height="64" as="geometry" />
        </mxCell>
        <mxCell id="5OvOFmdN3fMAkDXwJzaa-4" value="" style="image;aspect=fixed;html=1;points=[];align=center;fontSize=12;image=img/lib/azure2/databases/Azure_Cosmos_DB.svg;" vertex="1" parent="1">
          <mxGeometry x="220" y="740" width="64" height="64" as="geometry" />
        </mxCell>
        <mxCell id="5OvOFmdN3fMAkDXwJzaa-5" value="" style="image;aspect=fixed;html=1;points=[];align=center;fontSize=12;image=img/lib/azure2/app_services/App_Services.svg;" vertex="1" parent="1">
          <mxGeometry x="520" y="550" width="64" height="64" as="geometry" />
        </mxCell>
        <mxCell id="5OvOFmdN3fMAkDXwJzaa-6" value="" style="image;aspect=fixed;html=1;points=[];align=center;fontSize=12;image=img/lib/azure2/compute/App_Services.svg;" vertex="1" parent="1">
          <mxGeometry x="220" y="550" width="64" height="64" as="geometry" />
        </mxCell>
        <mxCell id="5OvOFmdN3fMAkDXwJzaa-7" value="" style="endArrow=classic;startArrow=classic;html=1;rounded=0;entryX=0.529;entryY=0.968;entryDx=0;entryDy=0;entryPerimeter=0;" edge="1" parent="1" target="5OvOFmdN3fMAkDXwJzaa-1">
          <mxGeometry width="50" height="50" relative="1" as="geometry">
            <mxPoint x="406" y="400" as="sourcePoint" />
            <mxPoint x="450" y="570" as="targetPoint" />
          </mxGeometry>
        </mxCell>
        <mxCell id="5OvOFmdN3fMAkDXwJzaa-9" value="" style="endArrow=classic;startArrow=classic;html=1;rounded=0;entryX=0.453;entryY=0.969;entryDx=0;entryDy=0;entryPerimeter=0;" edge="1" parent="1" source="5OvOFmdN3fMAkDXwJzaa-3" target="5OvOFmdN3fMAkDXwJzaa-5">
          <mxGeometry width="50" height="50" relative="1" as="geometry">
            <mxPoint x="400" y="800" as="sourcePoint" />
            <mxPoint x="450" y="750" as="targetPoint" />
          </mxGeometry>
        </mxCell>
        <mxCell id="5OvOFmdN3fMAkDXwJzaa-10" value="" style="endArrow=classic;html=1;rounded=0;exitX=0.438;exitY=0.938;exitDx=0;exitDy=0;exitPerimeter=0;entryX=0.547;entryY=0.031;entryDx=0;entryDy=0;entryPerimeter=0;" edge="1" parent="1" source="5OvOFmdN3fMAkDXwJzaa-2" target="5OvOFmdN3fMAkDXwJzaa-5">
          <mxGeometry width="50" height="50" relative="1" as="geometry">
            <mxPoint x="400" y="600" as="sourcePoint" />
            <mxPoint x="450" y="550" as="targetPoint" />
          </mxGeometry>
        </mxCell>
        <mxCell id="5OvOFmdN3fMAkDXwJzaa-11" value="" style="endArrow=none;dashed=1;html=1;dashPattern=1 3;strokeWidth=2;rounded=0;exitX=0.531;exitY=-0.078;exitDx=0;exitDy=0;exitPerimeter=0;entryX=0.516;entryY=0.906;entryDx=0;entryDy=0;entryPerimeter=0;" edge="1" parent="1" source="5OvOFmdN3fMAkDXwJzaa-6" target="5OvOFmdN3fMAkDXwJzaa-2">
          <mxGeometry width="50" height="50" relative="1" as="geometry">
            <mxPoint x="400" y="600" as="sourcePoint" />
            <mxPoint x="400" y="470" as="targetPoint" />
          </mxGeometry>
        </mxCell>
        <mxCell id="5OvOFmdN3fMAkDXwJzaa-12" value="" style="endArrow=none;dashed=1;html=1;dashPattern=1 3;strokeWidth=2;rounded=0;exitX=0.484;exitY=0.984;exitDx=0;exitDy=0;exitPerimeter=0;entryX=0.484;entryY=-0.047;entryDx=0;entryDy=0;entryPerimeter=0;" edge="1" parent="1" source="5OvOFmdN3fMAkDXwJzaa-6" target="5OvOFmdN3fMAkDXwJzaa-4">
          <mxGeometry width="50" height="50" relative="1" as="geometry">
            <mxPoint x="400" y="600" as="sourcePoint" />
            <mxPoint x="450" y="550" as="targetPoint" />
          </mxGeometry>
        </mxCell>
        <mxCell id="5OvOFmdN3fMAkDXwJzaa-16" value="React Web App&lt;br&gt;&amp;nbsp;(Static site on Azure)" style="text;html=1;align=center;verticalAlign=middle;resizable=0;points=[];autosize=1;strokeColor=none;fillColor=none;" vertex="1" parent="1">
          <mxGeometry x="425" y="280" width="140" height="40" as="geometry" />
        </mxCell>
        <mxCell id="5OvOFmdN3fMAkDXwJzaa-17" value="Public access" style="text;html=1;align=center;verticalAlign=middle;resizable=0;points=[];autosize=1;strokeColor=none;fillColor=none;" vertex="1" parent="1">
          <mxGeometry x="410" y="360" width="100" height="30" as="geometry" />
        </mxCell>
        <mxCell id="5OvOFmdN3fMAkDXwJzaa-18" value="Application Gateway&amp;nbsp;&lt;br&gt;(WAF-enabled, Public IP)" style="text;html=1;align=center;verticalAlign=middle;resizable=0;points=[];autosize=1;strokeColor=none;fillColor=none;" vertex="1" parent="1">
          <mxGeometry x="430" y="412" width="160" height="40" as="geometry" />
        </mxCell>
        <mxCell id="5OvOFmdN3fMAkDXwJzaa-19" value="Internal Access&lt;br&gt;&amp;nbsp;Only" style="text;html=1;align=center;verticalAlign=middle;resizable=0;points=[];autosize=1;strokeColor=none;fillColor=none;" vertex="1" parent="1">
          <mxGeometry x="240" y="470" width="100" height="40" as="geometry" />
        </mxCell>
        <mxCell id="5OvOFmdN3fMAkDXwJzaa-20" value="Public API" style="text;html=1;align=center;verticalAlign=middle;resizable=0;points=[];autosize=1;strokeColor=none;fillColor=none;" vertex="1" parent="1">
          <mxGeometry x="470" y="475" width="80" height="30" as="geometry" />
        </mxCell>
        <mxCell id="5OvOFmdN3fMAkDXwJzaa-21" value="Backend Service 1&lt;br&gt;(Internal API)" style="text;html=1;align=center;verticalAlign=middle;resizable=0;points=[];autosize=1;strokeColor=none;fillColor=none;" vertex="1" parent="1">
          <mxGeometry x="100" y="562" width="120" height="40" as="geometry" />
        </mxCell>
        <mxCell id="5OvOFmdN3fMAkDXwJzaa-22" value="Backend Service 2&lt;br&gt;(Public API)&lt;br&gt;(Accessible via Gateway)" style="text;html=1;align=center;verticalAlign=middle;resizable=0;points=[];autosize=1;strokeColor=none;fillColor=none;" vertex="1" parent="1">
          <mxGeometry x="584" y="552" width="160" height="60" as="geometry" />
        </mxCell>
        <mxCell id="5OvOFmdN3fMAkDXwJzaa-23" value="Outbound&lt;br&gt;Restriction to &lt;br&gt;203.0.113.0/24 (Banking)" style="text;html=1;align=center;verticalAlign=middle;resizable=0;points=[];autosize=1;strokeColor=none;fillColor=none;" vertex="1" parent="1">
          <mxGeometry x="80" y="634" width="160" height="60" as="geometry" />
        </mxCell>
        <mxCell id="5OvOFmdN3fMAkDXwJzaa-24" value="Private&lt;br&gt;&amp;nbsp;Cosmos DB" style="text;html=1;align=center;verticalAlign=middle;resizable=0;points=[];autosize=1;strokeColor=none;fillColor=none;" vertex="1" parent="1">
          <mxGeometry x="115" y="752" width="90" height="40" as="geometry" />
        </mxCell>
        <mxCell id="5OvOFmdN3fMAkDXwJzaa-25" value="Public &lt;br&gt;Cosmos DB" style="text;html=1;align=center;verticalAlign=middle;resizable=0;points=[];autosize=1;strokeColor=none;fillColor=none;" vertex="1" parent="1">
          <mxGeometry x="610" y="740" width="90" height="40" as="geometry" />
        </mxCell>
        <mxCell id="5OvOFmdN3fMAkDXwJzaa-26" value="" style="shape=mxgraph.arrows2.wedgeArrow;html=1;bendable=0;startWidth=10;fillColor=strokeColor;defaultFillColor=invert;defaultGradientColor=invert;rounded=0;" edge="1" parent="1">
          <mxGeometry width="100" height="100" relative="1" as="geometry">
            <mxPoint x="261" y="539" as="sourcePoint" />
            <mxPoint x="249" y="549" as="targetPoint" />
          </mxGeometry>
        </mxCell>
        <mxCell id="5OvOFmdN3fMAkDXwJzaa-27" value="" style="shape=mxgraph.arrows2.wedgeArrow;html=1;bendable=0;startWidth=10;fillColor=strokeColor;defaultFillColor=invert;defaultGradientColor=invert;rounded=0;" edge="1" parent="1">
          <mxGeometry width="100" height="100" relative="1" as="geometry">
            <mxPoint x="250" y="730" as="sourcePoint" />
            <mxPoint x="250" y="742" as="targetPoint" />
          </mxGeometry>
        </mxCell>
      </root>
    </mxGraphModel>
  </diagram>
</mxfile>
